<svg width="346" height="37" viewBox="0 0 346 37" fill="none" xmlns="http://www.w3.org/2000/svg">
<path d="M15.9418 12.4955H22.4277V35.7599H17.6001L16.9173 33.1262H16.7222C16.3645 33.4847 15.95 33.8505 15.4785 34.2236C15.007 34.5975 14.4543 34.9389 13.8202 35.2478C13.1862 35.5575 12.47 35.8087 11.6742 36.0038C10.8776 36.1988 9.9916 36.2964 9.01533 36.2964C6.51168 36.2964 4.53721 35.5973 3.08948 34.1992C1.64256 32.8018 0.919922 30.7363 0.919922 28.0051V12.4955H7.40665V27.4686C7.40665 28.8675 7.73911 29.8755 8.40568 30.4925C9.07224 31.1103 9.92657 31.4191 10.967 31.4191C12.1376 31.4191 13.1374 31.1753 13.9665 30.6876C14.7957 30.1998 15.4541 29.6316 15.9418 28.9805V12.4955Z" fill="#191717"/>
<path d="M28.4757 0.936465H34.8649V35.76H28.4757V0.936465Z" fill="#191717"/>
<path d="M55.3488 12.4955H62.2257L53.9824 35.7599H46.4722L38.4727 12.4955H45.3992L48.8133 24.1033L50.2269 31.1265H50.422L51.8372 24.1033L55.3488 12.4955Z" fill="#191717"/>
<path d="M66.1272 12.4955H72.6139V35.76H66.1272V12.4955ZM69.3957 7.52075C68.2894 7.52075 67.4278 7.20372 66.81 6.56968C66.1922 5.93563 65.8833 5.14798 65.8833 4.20423C65.8833 3.26211 66.1922 2.47281 66.81 1.83877C67.4278 1.20473 68.2894 0.887695 69.3957 0.887695C70.4679 0.887695 71.3223 1.20473 71.9555 1.83877C72.5895 2.47281 72.9065 3.26211 72.9065 4.20423C72.9065 5.14798 72.5976 5.93563 71.9799 6.56968C71.3621 7.20372 70.5004 7.52075 69.3957 7.52075Z" fill="#191717"/>
<path d="M85.5866 27.9563V35.7599H79.1483V0.936385H85.5866V21.6159L93.391 12.4955H101.243L92.2692 22.2987L101.682 35.7599H94.0242L87.4895 26.0542L85.5866 27.9563Z" fill="#191717"/>
<path d="M113.827 0.887776C114.736 0.887776 115.687 1.01783 116.68 1.27796C117.671 1.53808 118.557 1.86323 119.338 2.25341L118.46 5.22852C117.809 4.9684 117.192 4.76519 116.607 4.61887C116.021 4.47255 115.403 4.39939 114.753 4.39939C113.193 4.39939 112.079 4.83834 111.412 5.71624C110.746 6.59414 110.413 8.08983 110.413 10.2033V12.837H117.387V16.056H110.413V35.7601H106.169V16.056H102.803V12.837H106.169V8.78891C106.169 6.25274 106.828 4.30185 108.145 2.93622C109.461 1.57059 111.355 0.887776 113.827 0.887776Z" fill="#191717"/>
<path d="M120.556 35.76V12.8369H123.775L124.506 17.4215C125.059 15.9584 125.969 14.7716 127.237 13.8612C128.505 12.9507 129.969 12.4955 131.627 12.4955C132.472 12.4955 133.171 12.5606 133.724 12.6906C134.277 12.8207 134.78 12.9833 135.236 13.1783L134.407 16.9338C134.017 16.7387 133.585 16.5762 133.114 16.4461C132.643 16.3169 132.082 16.251 131.432 16.251C130.489 16.251 129.618 16.4144 128.822 16.7387C128.025 17.0639 127.327 17.5516 126.725 18.2019C126.124 18.853 125.653 19.6569 125.311 20.6161C124.969 21.5753 124.799 22.6727 124.799 23.9083V35.76H120.556Z" fill="#191717"/>
<path d="M154.161 12.8368H158.452V35.7598H155.087L154.502 32.8822H154.307C153.461 33.826 152.412 34.6137 151.161 35.2477C149.909 35.8817 148.453 36.1988 146.795 36.1988C144.422 36.1988 142.495 35.5249 141.016 34.1747C139.536 32.8261 138.797 30.785 138.797 28.0538V12.8368H143.089V27.5173C143.089 28.4927 143.21 29.3219 143.454 30.0047C143.699 30.6875 144.023 31.2321 144.43 31.6385C144.836 32.0458 145.316 32.3384 145.869 32.5164C146.421 32.6961 147.023 32.7847 147.674 32.7847C148.974 32.7847 150.144 32.5091 151.185 31.9556C152.225 31.4028 153.217 30.6387 154.161 29.6633V12.8368Z" fill="#191717"/>
<path d="M169.377 27.3713V35.7601H165.133V1.13173H169.377V22.6891L178.595 12.8371H183.911L174.498 22.494L184.35 35.7601H179.278L171.668 25.079L169.377 27.3713Z" fill="#191717"/>
<path d="M200.395 16.0558H193.665V29.3706C193.665 30.5095 193.948 31.2727 194.518 31.6629C195.086 32.0531 195.826 32.2482 196.737 32.2482C197.387 32.2482 198.103 32.175 198.883 32.0287C199.664 31.8824 200.346 31.7117 200.931 31.5166L201.615 34.7844C200.963 35.0453 200.134 35.2721 199.126 35.4672C198.118 35.6623 197.062 35.7598 195.957 35.7598C193.68 35.7598 192.022 35.2648 190.982 34.2723C189.941 33.2805 189.421 31.8418 189.421 29.9559V16.0558H186.007V12.8368H189.421V5.52091H193.665V12.8368H200.395V16.0558Z" fill="#191717"/>
<path d="M208.442 26.5909C208.442 28.6394 209.117 30.192 210.466 31.2487C211.814 32.3054 213.612 32.8338 215.855 32.8338C216.538 32.8338 217.245 32.7533 217.977 32.5899C218.708 32.4274 219.416 32.1924 220.098 31.8827C220.781 31.5738 221.407 31.208 221.976 30.7854C222.545 30.3635 223.025 29.8912 223.415 29.3709L213.856 19.6652C213.139 20.0229 212.457 20.4293 211.807 20.8845C211.157 21.3406 210.58 21.8519 210.076 22.4209C209.572 22.9899 209.173 23.6239 208.881 24.323C208.588 25.0221 208.442 25.778 208.442 26.5909ZM204.247 26.6885C204.247 25.4862 204.451 24.3962 204.857 23.4207C205.263 22.4453 205.808 21.5674 206.491 20.787C207.174 20.0066 207.97 19.3238 208.881 18.7386C209.79 18.1533 210.766 17.6493 211.807 17.2266C210.962 16.2837 210.222 15.2026 209.588 13.9833C208.954 12.7639 208.637 11.4227 208.637 9.95953C208.637 8.88654 208.848 7.92817 209.272 7.08196C209.693 6.23658 210.271 5.51312 211.002 4.91159C211.734 4.31007 212.595 3.85486 213.587 3.54596C214.579 3.23707 215.628 3.08263 216.733 3.08263C217.839 3.08263 218.871 3.2452 219.83 3.57035C220.789 3.8955 221.618 4.35884 222.318 4.96036C223.017 5.56189 223.561 6.28535 223.951 7.13074C224.342 7.97694 224.537 8.90279 224.537 9.91076C224.537 11.6349 224.098 13.0647 223.22 14.2027C222.342 15.3416 221.188 16.2674 219.757 16.9828L217.757 14.5929C218.603 14.1377 219.277 13.5362 219.781 12.7883C220.285 12.0405 220.537 11.1626 220.537 10.1546C220.537 9.0166 220.172 8.08993 219.44 7.3746C218.708 6.65927 217.773 6.30161 216.636 6.30161C215.4 6.30161 214.441 6.64302 213.758 7.32583C213.075 8.00865 212.734 8.90279 212.734 10.0083C212.734 11.4715 213.139 12.8127 213.953 14.032C214.765 15.2513 215.937 16.6251 217.465 18.1533L225.658 26.4446C226.21 25.5992 226.731 24.6156 227.219 23.4939C227.707 22.3721 228.13 21.291 228.487 20.2505L231.999 21.6649C231.479 23.1281 230.893 24.4937 230.243 25.7618C229.593 27.0299 228.942 28.1516 228.292 29.1271L234.877 35.7601H229.609L225.902 31.9559C225.446 32.4761 224.885 32.9882 224.22 33.4922C223.553 33.9962 222.781 34.4433 221.903 34.8335C221.025 35.2236 220.042 35.5407 218.952 35.7845C217.863 36.0284 216.667 36.1503 215.368 36.1503C213.676 36.1503 212.149 35.9138 210.783 35.4431C209.417 34.9725 208.247 34.3132 207.271 33.4678C206.296 32.6224 205.547 31.6226 205.028 30.4683C204.508 29.3149 204.247 28.0541 204.247 26.6885Z" fill="#191717"/>
<path d="M249.069 32.8824C250.109 32.8824 251.02 32.7686 251.801 32.541C252.581 32.3142 253.345 32.0208 254.093 31.6631L255.019 34.8821C253.264 35.76 251.166 36.1989 248.728 36.1989C247.07 36.1989 245.517 35.9551 244.07 35.4673C242.622 34.9796 241.355 34.2407 240.266 33.2482C239.176 32.2565 238.322 31.0209 237.706 29.5415C237.087 28.0621 236.779 26.3306 236.779 24.3472C236.779 22.5264 237.071 20.8844 237.656 19.4212C238.242 17.958 239.055 16.7143 240.095 15.6901C241.135 14.6659 242.387 13.8782 243.851 13.3247C245.314 12.7719 246.923 12.4955 248.68 12.4955C249.687 12.4955 250.671 12.5687 251.63 12.715C252.588 12.8613 253.686 13.2109 254.922 13.7636L253.946 17.0314C252.451 16.186 250.841 15.7633 249.118 15.7633C246.744 15.7633 244.826 16.5038 243.363 17.9824C241.9 19.4627 241.168 21.5355 241.168 24.2009C241.168 25.8592 241.396 27.2419 241.851 28.3466C242.306 29.4521 242.907 30.3389 243.656 31.0047C244.403 31.6712 245.249 32.1508 246.192 32.4434C247.135 32.7361 248.094 32.8824 249.069 32.8824Z" fill="#191717"/>
<path d="M260.432 12.8369H264.724V35.76H260.432V12.8369ZM262.578 6.93548C261.831 6.93548 261.188 6.68349 260.653 6.17951C260.116 5.67553 259.848 5.05043 259.848 4.30177C259.848 3.55393 260.116 2.91989 260.653 2.39965C261.188 1.88022 261.831 1.61928 262.578 1.61928C263.294 1.61928 263.928 1.88022 264.481 2.39965C265.033 2.91989 265.31 3.55393 265.31 4.30177C265.31 5.05043 265.033 5.67553 264.481 6.17951C263.928 6.68349 263.294 6.93548 262.578 6.93548Z" fill="#191717"/>
<path d="M286.964 18.3483C285.435 16.625 283.63 15.7634 281.55 15.7634C280.672 15.7634 279.819 15.9178 278.99 16.2267C278.16 16.5364 277.43 17.0314 276.795 17.7143C276.161 18.3971 275.649 19.275 275.259 20.348C274.868 21.421 274.673 22.7053 274.673 24.201C274.673 25.7617 274.852 27.0867 275.21 28.1759C275.566 29.266 276.046 30.1594 276.649 30.8584C277.25 31.5575 277.933 32.0696 278.697 32.3948C279.461 32.7199 280.233 32.8825 281.014 32.8825C283.453 32.8825 285.435 31.8266 286.964 29.7123V18.3483ZM286.964 1.13163H291.256V35.7601H287.647L287.111 33.2239H286.964C285.956 34.2652 284.94 35.0212 283.916 35.4918C282.891 35.9625 281.599 36.199 280.038 36.199C278.803 36.199 277.607 35.9551 276.453 35.4674C275.298 34.9797 274.267 34.2481 273.356 33.2727C272.446 32.2972 271.714 31.0698 271.162 29.5903C270.609 28.1109 270.332 26.3632 270.332 24.3473C270.332 22.5598 270.568 20.9332 271.04 19.4701C271.51 18.0069 272.186 16.7559 273.064 15.7146C273.942 14.6741 275.015 13.8775 276.283 13.3247C277.551 12.772 278.997 12.4956 280.623 12.4956C281.826 12.4956 282.973 12.6834 284.063 13.0565C285.151 13.4304 286.118 13.9913 286.964 14.7391V1.13163Z" fill="#191717"/>
<path d="M312.959 21.7137C312.959 20.8683 312.853 20.0798 312.642 19.3482C312.431 18.6166 312.106 17.9745 311.667 17.4217C311.228 16.869 310.667 16.43 309.984 16.1049C309.302 15.7797 308.472 15.6171 307.497 15.6171C305.708 15.6171 304.254 16.1861 303.132 17.3242C302.01 18.4622 301.319 19.9579 301.059 21.8112L312.959 21.7137ZM317.398 24.7863H300.961V24.9814C300.961 27.5176 301.652 29.4685 303.034 30.8341C304.415 32.1997 306.294 32.8826 308.668 32.8826C309.902 32.8826 311 32.785 311.96 32.5899C312.918 32.3948 313.967 32.0697 315.105 31.6145L315.983 34.7847C315.04 35.2074 313.926 35.5488 312.642 35.8089C311.357 36.069 309.984 36.1991 308.521 36.1991C306.863 36.1991 305.31 35.9715 303.863 35.5163C302.416 35.0611 301.139 34.3539 300.035 33.3947C298.928 32.4355 298.06 31.208 297.425 29.7124C296.791 28.2167 296.474 26.4283 296.474 24.3474C296.474 22.5599 296.743 20.9333 297.279 19.4701C297.816 18.007 298.572 16.7633 299.547 15.7391C300.522 14.7148 301.7 13.9182 303.083 13.3492C304.465 12.7802 306.017 12.4957 307.741 12.4957C309.204 12.4957 310.528 12.7396 311.716 13.2273C312.903 13.715 313.919 14.3978 314.764 15.2757C315.609 16.1536 316.26 17.2104 316.715 18.4459C317.17 19.6815 317.398 21.0471 317.398 22.5428V24.7863Z" fill="#191717"/>
<path d="M322.373 35.76V12.8369H325.592L326.323 17.4215C326.876 15.9584 327.786 14.7716 329.054 13.8612C330.322 12.9507 331.786 12.4955 333.444 12.4955C334.289 12.4955 334.988 12.5606 335.541 12.6906C336.094 12.8207 336.597 12.9833 337.053 13.1783L336.224 16.9338C335.834 16.7387 335.402 16.5762 334.931 16.4461C334.46 16.3169 333.899 16.251 333.249 16.251C332.306 16.251 331.435 16.4144 330.639 16.7387C329.842 17.0639 329.144 17.5516 328.542 18.2019C327.941 18.853 327.47 19.6569 327.128 20.6161C326.786 21.5753 326.616 22.6727 326.616 23.9083V35.76H322.373Z" fill="#191717"/>
<path d="M341.052 12.8369H345.344V35.76H341.052V12.8369ZM343.198 6.93548C342.451 6.93548 341.808 6.68349 341.272 6.17951C340.735 5.67553 340.467 5.05043 340.467 4.30177C340.467 3.55393 340.735 2.91989 341.272 2.39965C341.808 1.88022 342.451 1.61928 343.198 1.61928C343.914 1.61928 344.548 1.88022 345.1 2.39965C345.653 2.91989 345.93 3.55393 345.93 4.30177C345.93 5.05043 345.653 5.67553 345.1 6.17951C344.548 6.68349 343.914 6.93548 343.198 6.93548Z" fill="#191717"/>
</svg>
