<svg width="277" height="260" viewBox="0 0 277 260" fill="none" xmlns="http://www.w3.org/2000/svg">
<path fill-rule="evenodd" clip-rule="evenodd" d="M170.171 0.83056C169.111 1.68895 167.288 1.74342 166.728 3.1188C165.87 -0.548887 168.496 -0.505805 170.171 0.83056Z" fill="#191717"/>
<path fill-rule="evenodd" clip-rule="evenodd" d="M176.747 5.08611C178.018 10.5933 182.501 5.78599 176.747 5.08611V5.08611Z" fill="#191717"/>
<path fill-rule="evenodd" clip-rule="evenodd" d="M84.1012 13.9173C84.9766 8.88882 89.8043 13.4783 84.1012 13.9173V13.9173Z" fill="#191717"/>
<path fill-rule="evenodd" clip-rule="evenodd" d="M51.8694 30.93C51.6791 33.241 50.081 34.0783 48.1114 34.5286C48.0984 32.0169 50.4842 31.9892 51.8694 30.93Z" fill="#191717"/>
<path fill-rule="evenodd" clip-rule="evenodd" d="M54.0579 31.582C54.1538 33.6248 53.9725 36.1439 52.4955 36.4942C52.2265 36.5601 50.0658 35.609 49.9894 35.1855C49.7862 34.0784 53.0247 32.3941 54.0579 31.582Z" fill="#191717"/>
<path fill-rule="evenodd" clip-rule="evenodd" d="M46.234 42.7034C43.6207 43.8268 45.665 40.9053 42.7915 41.402C43.0565 39.4064 45.969 38.8942 44.3539 36.8279C48.532 35.9199 44.9302 40.4867 46.234 42.7034Z" fill="#191717"/>
<path fill-rule="evenodd" clip-rule="evenodd" d="M207.412 39.1114C209.655 40.047 209.957 42.8132 210.541 44.673C208.538 43.7122 205.786 41.9507 207.412 39.1114Z" fill="#191717"/>
<path fill-rule="evenodd" clip-rule="evenodd" d="M200.529 41.0722C202.147 40.274 204.168 43.6279 205.54 44.3465C206.421 44.8155 206.834 44.1562 207.099 44.6732C208.405 47.2037 206.444 50.7454 206.786 52.8499C203.886 51.4022 201.313 47.0574 199.275 45.3276C198.923 45.0301 195.666 43.4287 196.774 41.729C198.395 39.2392 200.317 44.648 200.529 44.6732C201.468 44.7854 200.925 42.1517 200.529 41.0722Z" fill="#191717"/>
<path fill-rule="evenodd" clip-rule="evenodd" d="M37.7823 43.6895C40.82 42.0694 42.2141 47.2247 38.4147 45.9842C37.649 45.7371 35.7883 44.7576 37.7823 43.6895Z" fill="#191717"/>
<path fill-rule="evenodd" clip-rule="evenodd" d="M224.937 45.6594C226.697 45.4489 228.051 47.0527 227.443 48.2768C225.964 48.0728 225.392 46.9291 224.937 45.6594Z" fill="#191717"/>
<path fill-rule="evenodd" clip-rule="evenodd" d="M27.77 52.5253C31.6482 50.311 27.8025 56.9432 26.8287 54.1632C26.5076 53.2463 26.6076 53.1845 27.77 52.5253Z" fill="#191717"/>
<path fill-rule="evenodd" clip-rule="evenodd" d="M180.807 58.4143C181.96 64.7905 186.914 58.3574 180.807 58.4143V58.4143Z" fill="#191717"/>
<path fill-rule="evenodd" clip-rule="evenodd" d="M258.423 73.7957C256.466 73.7453 256.628 72.1464 254.985 72.4845C255.239 70.2426 259.051 71.2766 258.423 73.7957Z" fill="#191717"/>
<path fill-rule="evenodd" clip-rule="evenodd" d="M8.04979 91.7876C8.35624 84.5099 13.2034 90.561 8.04979 91.7876V91.7876Z" fill="#191717"/>
<path fill-rule="evenodd" clip-rule="evenodd" d="M272.512 103.57C271.611 103.092 271.144 102.156 270.006 101.93C270.96 99.1612 274.972 101.776 272.512 103.57Z" fill="#191717"/>
<path fill-rule="evenodd" clip-rule="evenodd" d="M12.4355 176.862H13.3719C13.4442 178.228 14.9196 179.418 13.9978 180.789C12.5598 180.438 12.4314 178.718 12.4355 176.862Z" fill="#191717"/>
<path fill-rule="evenodd" clip-rule="evenodd" d="M254.985 192.891C254.033 194.712 253.88 196.076 254.985 197.801C252.19 198.714 251.684 192.697 254.985 192.891Z" fill="#191717"/>
<path fill-rule="evenodd" clip-rule="evenodd" d="M242.784 205.65C244.077 206.155 243.567 208.535 245.287 208.596C244.419 211.976 241.274 208.461 242.784 205.65Z" fill="#191717"/>
<path fill-rule="evenodd" clip-rule="evenodd" d="M225.565 231.83C220.56 230.537 225.946 224.88 225.565 231.83V231.83Z" fill="#191717"/>
<path fill-rule="evenodd" clip-rule="evenodd" d="M222.749 230.844C222.282 232.653 221.304 233.928 218.995 233.788V236.083C218.159 236.079 217.203 236.206 216.802 235.756C217.015 234.456 217.595 233.532 217.424 231.83C218.608 231.583 218.109 233.082 218.995 233.134C219.271 230.684 220.672 231.419 222.749 230.844Z" fill="#191717"/>
<path fill-rule="evenodd" clip-rule="evenodd" d="M53.1191 232.482C54.5546 232.622 55.5634 233.198 55.6251 234.774C53.9571 234.971 52.3184 233.814 53.1191 232.482Z" fill="#191717"/>
<path fill-rule="evenodd" clip-rule="evenodd" d="M211.793 235.099C211.979 235.399 214.198 239.869 213.36 240.668C210.788 243.096 210.771 237.108 211.793 235.099Z" fill="#191717"/>
<path fill-rule="evenodd" clip-rule="evenodd" d="M58.4457 238.373C59.8374 237.282 61.4217 238.163 61.2534 238.044C62.9848 239.27 58.6514 243.095 57.8133 240.334C57.6247 239.71 57.7085 238.946 58.4457 238.373Z" fill="#191717"/>
<path fill-rule="evenodd" clip-rule="evenodd" d="M197.399 239.353C199.167 237.945 199.365 242.382 198.336 242.951C196.979 243.709 196.452 240.11 197.399 239.353Z" fill="#191717"/>
<path fill-rule="evenodd" clip-rule="evenodd" d="M205.219 242.626C205.291 242.416 208.414 239.329 208.668 239.352C209.876 239.442 210.968 241.798 210.542 242.626C210.344 243.011 206.162 243.612 205.219 242.626Z" fill="#191717"/>
<path fill-rule="evenodd" clip-rule="evenodd" d="M152.674 243.931C153.339 245.802 157.315 244.31 156.433 240.995C155.237 241.096 152.507 243.464 152.674 243.931ZM142.659 240.995C139.449 246.548 145.321 246.079 142.659 240.995V240.995ZM90.0842 240.004C88.9812 239.844 88.0447 239.52 86.6377 239.682C86.8848 242.187 89.9005 243.324 90.0842 240.004ZM75.9971 235.756C77.5944 235.928 78.2342 236.976 77.5644 238.701C81.4271 237.572 77.7481 230.999 75.9971 235.756ZM79.1292 231.83C80.4923 233.942 84.6347 228.528 81.0044 228.883C79.2625 229.05 78.109 230.254 79.1292 231.83ZM58.7846 227.904C58.6431 225.435 56.5158 225.039 54.4015 224.63C55.2071 226.255 56.997 228.389 58.7846 227.904ZM70.3615 223.978C69.8282 224.763 70.7972 227.614 72.5522 227.247C73.5788 224.991 71.141 222.829 70.3615 223.978ZM40.6315 222.992C40.2136 221.143 39.3756 219.73 37.1889 219.722C37.3751 221.818 38.2855 223.154 40.6315 222.992ZM43.4505 222.992C43.5464 220.596 42.4068 217.762 40.6315 218.414C42.2377 219.45 40.4347 222.384 43.4505 222.992ZM40.0056 213.184C38.0953 213.536 37.4165 212.607 36.246 212.198C35.7802 215.712 39.9576 216.208 40.0056 213.184ZM46.5752 205.65C47.6523 206.604 47.6084 208.718 49.7048 208.597C49.7925 206.581 48.1319 204.909 46.5752 205.65ZM35.933 211.214C34.7601 209.894 35.9574 208.757 35.933 207.945C35.8696 205.6 32.2459 206.085 31.5557 204.346C31.7687 207.94 34.0293 209.402 35.933 211.214ZM217.774 207.288C216.015 201.768 221.847 204.753 217.774 207.288V207.288ZM25.9209 196.16C26.411 198.252 28.4067 199.762 28.7375 201.074C29.1228 202.589 28.3148 203.692 30.3063 203.684C31.4533 202.353 29.8251 201.79 29.365 200.74C28.0368 197.724 26.8728 193.607 24.9845 191.582C25.3186 193.626 25.4811 194.305 25.9209 196.16ZM23.7326 192.567C24.7479 189.913 24.8723 186.425 21.8525 185.696C22.154 188.702 22.0102 190.707 23.7326 192.567ZM254.387 172.605C251.936 179.507 258.543 176.318 254.387 172.605V172.605ZM20.9136 179.805C19.0269 176.352 20.7535 173.055 17.7865 170.965C16.6371 174.927 19.6878 177.247 20.9136 179.805ZM261.275 167.041C260.464 164.94 260.891 161.55 259.397 160.172C258.379 163.176 260.206 165.219 261.275 167.041ZM260.649 128.107C261.572 130.899 264.994 125.692 261.588 125.813C258.816 125.918 260.362 127.245 260.649 128.107ZM260.024 103.57C259.427 102.751 258.716 100.758 257.206 101.93C257.937 104.774 260.305 103.364 261.901 104.222C262.62 102.083 261.731 98.9944 259.716 98.6603C260.615 99.7333 261.09 102.195 260.024 103.57ZM35.933 92.115C36.4476 91.129 34.5325 90.4901 34.6853 90.4787C31.3639 90.6779 34.6772 94.5447 35.933 92.115ZM38.1278 92.115C40.3624 92.2727 40.3014 90.0284 40.3185 87.8661C38.7277 87.1777 37.8019 89.7333 38.1278 92.115ZM252.82 83.2832C252.761 81.3843 251.896 80.3211 250.945 79.3578C249.704 80.595 250.299 83.9855 252.82 83.2832ZM69.1105 66.2665C68.574 65.6145 68.4577 64.6285 68.1716 64.3034C67.4709 63.5068 65.3461 66.7924 66.2914 67.9069C67.1255 68.8726 70.3314 66.8379 70.3615 69.2156C71.2792 67.0485 70.1103 67.4907 69.1105 66.2665ZM218.708 59.0636C218.159 58.7734 217.798 58.2792 217.146 58.0898C218.01 61.0015 219.568 63.1865 222.153 64.3034C221.037 62.5622 221.714 62.5622 221.84 60.0545C219.56 60.3244 220.219 59.1758 220.273 57.433H219.334C219.382 58.245 219.175 58.7872 218.708 59.0636ZM212.139 53.1776C211.389 52.4265 209.758 52.2712 209.638 53.836C211.389 54.2961 211.557 56.4031 211.822 58.4141C213.36 56.6323 214.382 58.2678 216.524 58.4141C216.815 55.4878 215.496 54.253 213.708 53.5117C213.087 53.7312 213.78 55.3325 213.075 55.4674C212.014 53.9579 213.956 53.2548 213.393 51.2169H212.452C212.271 51.7933 212.831 53.1337 212.139 53.1776ZM156.433 39.4384C156.171 36.8786 153.939 36.373 152.05 35.5146C150.562 38.6564 153.14 40.2098 156.433 39.4384ZM162.06 34.5286C163.874 37.2973 166.645 31.0032 163.629 31.582C163.36 31.6373 161.248 33.2915 162.06 34.5286ZM114.495 31.9209C114.777 30.2505 115.88 29.4311 116.372 27.9858C113.028 27.3152 113.453 30.2342 114.495 31.9209ZM132.956 27.6558C132.534 28.3353 136.337 29.1206 137.029 28.6418C136.833 27.4339 133.871 25.9626 132.956 27.6558ZM235.295 199.105V198.778C234.166 199.451 233.68 201.707 234.045 203.684C234.315 205.176 236.058 206.352 234.363 208.597C234.277 208.706 233.463 208.48 233.419 208.597C233.013 209.759 233.756 210.617 231.541 211.214C230.597 209.649 231.675 206.334 231.859 206.963C231.656 206.251 230.086 205.591 229.981 205.65C228.524 206.485 228.384 217.467 225.283 212.198C224.383 214.08 225.359 216.494 224.657 218.084C223.431 217.508 223.832 215.245 223.72 213.509C223.797 214.327 221.886 214.003 221.532 214.483C221.278 214.826 221.536 216.733 221.215 217.432C220.728 218.48 219.637 218.075 219.334 219.066C219.19 219.56 219.503 220.217 219.334 220.708C218.882 222.076 217.895 222.923 219.026 224.63C216.68 225.486 216.423 221.511 214.332 221.036C215.139 222.903 214.605 221.61 213.708 222.992C212.635 224.635 213.246 228.222 209.951 227.247C210.243 229.503 210.336 228.799 208.383 229.865C208.213 229.959 207.839 230.837 207.757 230.844C206.963 230.922 206.893 229.901 206.19 230.192C205.589 230.441 203.396 232.759 203.689 232.809C204.501 232.956 203.168 232.816 203.379 232.809C200.17 232.937 200.809 235.829 197.745 235.099C197.947 237.263 198.739 237.893 196.802 238.701C196.347 236.669 196.419 234.086 195.239 232.809C194.791 233.216 194.648 233.935 194.609 234.774C193.633 235.147 193.852 234.262 193.364 234.122C192.642 234.786 193.25 236.836 193.044 238.044C191.998 238.049 190.965 238.044 191.171 236.735C189.46 237.888 188.348 239.675 188.663 242.951C187.619 244.191 187.497 241.888 187.105 241.642C186.838 241.481 185.707 241.888 185.533 241.642C184.56 240.229 185.871 235.726 183.03 238.044C182.588 238.408 183.56 238.918 183.348 240.004C183.284 240.322 182.227 240.929 181.78 242.299C180.706 245.619 181.853 247.049 178.023 245.896C177.513 246.676 177.802 248.28 176.147 247.863C176.239 246.074 175.552 242.576 177.71 243.931C176.528 240.716 179.546 236.312 177.71 236.083C176.469 235.928 176.358 237.893 175.834 238.701C175.771 238.801 174.922 238.591 174.895 238.701C174.073 241.588 175.644 247.223 174.895 249.495C173.409 248.04 172.866 246.047 170.514 247.863C170.65 245.546 167.814 246.04 167.384 247.205C166.978 248.298 172.119 253.107 167.697 252.769L166.871 251.627L165.507 251.787C164.391 248.223 161.32 247.145 157.368 248.843L156.745 248.683L156.114 248.515C154.989 248.424 153.958 248.435 154.239 249.822C153.028 250.106 153.727 248.392 152.363 248.843C151.924 250.835 150.043 251.181 151.422 253.421C150.461 253.661 150.818 252.528 149.861 252.769C149.912 253.697 149.591 255.013 150.486 255.059C149.491 255.475 147.564 252.213 146.099 253.748C144.581 255.342 148.59 255.363 147.98 257.022C146.428 255.329 144.754 258.053 143.285 257.347C144.787 256.729 143.677 252.956 142.036 252.769C142.023 252.769 140.999 253.533 140.78 253.421C139.313 252.675 138.239 251.615 138.589 249.495C138.637 249.211 139.528 248.502 139.528 248.191C139.528 247.651 138.77 247.145 138.589 246.22C137.895 242.75 139.861 239.181 136.087 239.682C138.398 238.284 134.442 233.822 132.02 236.406L130.783 236.246L129.831 237.06C128.015 238.044 129.009 240.757 127.012 241.975C127.871 242.816 130.033 243.501 131.081 242.299L132.449 242.462L133.587 241.642C134.345 242.155 134.919 242.862 136.396 242.627C137.168 243.64 135.678 245.464 135.77 246.22C135.895 247.2 137.416 248.008 137.654 249.17C138.169 251.709 137.376 253.453 136.087 255.713C134.639 255.086 135.496 252.597 134.525 252.117C131.738 250.724 131.621 255.832 128.888 255.713V252.441C127.144 251.444 126.96 254.679 126.069 255.386C124.828 256.376 122.883 255.114 122.629 257.022C122.535 257.708 123.872 258.344 123.257 259.317C122.498 259.177 122.574 259.909 121.69 259.642C121.786 256.521 121.128 251.609 118.248 251.787L117.837 250.641L116.687 250.801C116.801 248.388 115.619 250.508 114.803 249.495C113.229 247.534 116.611 245.413 116.687 243.279C116.703 242.667 114.965 238.813 114.495 238.701C113.085 238.373 112.739 240.249 111.367 240.668C111.394 240.199 111.416 239.732 111.05 239.682C108.35 241.201 112.446 242.922 114.182 242.951C112.103 245.667 112.498 247.472 113.243 251.455L112.1 251.293L111.05 251.787C107.82 250.531 106.185 253.057 106.049 256.042C105.353 254.745 105.953 250.581 101.977 251.787C101.616 251.402 101.622 250.634 101.659 249.822C99.6591 250.323 101.453 251.588 99.7835 251.787C96.2385 252.206 93.7324 248.646 95.0891 253.421C93.2179 253.744 94.6274 251.511 94.4616 250.801C94.0503 249.071 92.748 246.248 91.0191 247.863C90.5899 248.264 90.7606 249.17 90.3948 249.495C90.4346 249.461 88.808 249.55 88.8235 249.495C88.2024 250.874 89.6754 253.252 89.4518 255.059C89.3185 256.187 88.7495 256.473 89.4518 258.003C87.9505 258.319 88.4016 256.699 87.579 255.713C86.6832 254.64 85.02 254.35 85.0729 253.098C85.1534 251.181 88.5154 251.41 88.8235 248.843C88.6203 248.031 87.8765 249.328 87.579 249.495C87.0734 247.728 84.1714 248.475 84.7599 245.568C84.0202 244.839 84.434 246.42 83.8211 246.553C83.6105 246.594 82.8342 245.747 82.5668 245.896C81.8539 246.287 82.7074 246.928 82.2563 247.534C81.8051 248.136 79.451 248.195 79.4397 248.191C78.8536 247.888 79.5275 246.47 79.4397 246.22C78.9755 244.912 78.1204 247.34 78.1854 244.912C78.2228 243.714 80.1859 243.58 79.4397 242.299C77.5814 241.737 74.8705 242.059 74.1218 240.334C72.7318 240.816 74.3974 241.414 74.4348 242.299C74.3015 243.469 73.0188 243.436 72.2417 243.931C72.601 244.653 73.0448 245.267 72.8635 246.553C71.9531 246.207 71.2548 245.624 69.738 245.896C69.0682 248.452 72.1653 247.067 72.5522 248.515C70.2412 247.927 69.6307 251.511 67.2344 250.474C67.2458 250.481 66.9718 249.227 66.9214 249.17C66.8556 249.094 65.9939 248.863 65.9809 248.843C65.7753 248.442 66.2297 247.566 65.9809 247.205C65.4225 246.399 64.9518 247.026 64.4178 246.553C63.9276 246.129 63.9561 243.368 63.4789 244.912C63.8138 243.826 66.7686 244.987 67.5433 244.582C68.0814 244.315 69.0861 240.908 70.6769 241.32C68.9398 242.416 67.1994 240.078 65.668 240.004C65.2453 239.986 65.0616 241.309 65.0461 241.32C63.8837 241.986 62.1921 240.206 62.2254 240.334C61.8922 238.973 66.1882 236.653 65.668 239.682C66.6962 238.529 66.4337 236.937 65.9809 236.083C65.6631 235.482 62.2189 233.796 62.2254 233.788C61.5028 234.067 60.9273 236.264 60.9736 237.06C61.0411 238.284 61.9125 237.849 59.7259 238.701C59.6933 235.237 56.2833 235.314 53.7781 234.443V232.157C53.7382 231.53 52.7319 232.544 51.8979 232.157C53.9488 228.483 49.191 225.081 50.0226 229.865C48.3221 229.679 47.6417 228.428 46.2671 227.904C44.882 228.405 46.7044 229.174 46.2671 230.192C45.8469 231.171 43.1985 231.97 42.8205 231.83C41.9947 231.524 42.849 229.901 41.5687 228.883C40.5965 228.114 38.9773 228.517 38.4391 227.904C38.1676 227.593 38.3554 226.103 38.1278 225.609C37.2637 223.733 35.8932 224.099 34.3723 223.978C34.6398 218.464 27.9783 222.18 27.8011 217.105L28.8968 216.449L28.7375 215.14C29.6983 214.616 30.5648 213.998 30.9298 212.857C31.4753 214.355 32.736 215.11 33.7448 216.124C34.0334 213.797 30.5974 210.978 28.7375 210.889L28.0612 209.855L26.8598 209.91C26.9622 206.741 24.7544 206.002 23.4148 204.346C24.8991 207.121 17.9173 210.889 19.0383 204.018C18.5327 202.934 17.8669 204.064 17.1581 203.362C17.7775 201.347 16.2672 198.437 18.4075 198.126C18.8692 198.059 21.0054 202.671 22.1679 200.74C22.8377 199.629 19.6731 196.916 19.9772 197.469C19.6447 196.851 20.0666 195.035 19.0383 194.85L19.1936 194.037L18.4075 193.871C18.379 191.61 16.8647 190.908 15.9128 189.622C15.0219 189.817 15.9786 191.23 15.5909 191.582C12.6784 194.236 8.54247 185.371 9.96256 183.079C11.2908 183.402 10.3218 184.422 11.2144 184.71C11.1315 184.687 13.4636 184.147 13.7205 183.728C15.0178 181.541 12.7263 177.164 9.96256 179.805C9.80486 176.173 13.171 178.02 13.4002 177.837C15.0772 176.563 13.4075 174.273 14.031 171.951C12.4881 171.934 14.3504 173.467 13.4002 173.914C12.1378 173.161 11.9427 171.289 11.8379 169.333C12.8011 169.088 12.4402 170.232 13.4002 169.99C13.3303 169.333 14.1968 164.796 11.8379 166.389C12.6328 164.277 10.5072 164.132 9.96256 163.115C8.85299 161.06 9.71301 158.843 8.7083 156.247C6.52004 158.91 9.79836 161.252 9.64554 163.115C9.49597 165.018 7.03215 165.931 8.08238 168.354C9.26674 168.606 9.57726 167.954 10.5844 168.027C10.2991 171.204 11.9647 172.337 11.2144 175.226C10.1658 175.005 10.3064 173.554 9.33177 173.259C9.22935 175.243 7.17439 177.052 5.89168 176.21C4.55694 175.321 6.30787 172.156 5.89168 170.637C5.72098 170.027 2.62719 168.921 3.38804 167.041C4.17653 165.092 5.73399 167.345 6.52004 169.006C6.96631 167.491 6.60132 167.089 5.89168 166.389C4.43664 164.935 1.74928 165.508 2.44754 161.159C2.8304 158.758 1.58264 158.635 1.51029 155.267C1.48428 154.192 2.80601 154.592 2.44754 152.643C2.31585 151.908 1.1258 151.986 0.88682 151.012C0.427546 149.191 1.40137 146.242 1.19734 144.141C1.13231 143.494 0.392597 143.05 0.258473 142.508C-0.583664 139.007 0.873817 134.205 1.19734 130.725C1.63954 125.897 1.71676 121.743 2.44754 116.982C2.74911 115.021 3.70587 113.863 4.01394 111.091C4.22204 109.23 5.58767 107.677 5.89168 106.183C6.09978 105.174 5.61613 104.011 6.20302 103.236C6.35584 103.037 7.76536 102.598 7.76943 102.584C8.10677 101.777 7.64018 100.674 7.76943 99.9666C7.99053 98.7587 8.95378 96.8004 9.64554 95.7185C9.84876 95.4023 11.0811 95.5673 11.2144 95.3909C12.3695 93.8578 10.838 92.5402 11.5249 90.8088C11.7574 90.2162 13.1531 90.2113 13.4002 89.8227C13.7221 89.3326 13.1685 88.562 13.4002 87.8661C13.3392 88.049 15.5494 83.9749 15.5909 83.9448C16.1908 83.4067 16.7687 84.2009 17.1581 83.6108C17.4467 83.1669 16.972 82.2476 17.1581 81.6452C17.4272 80.7763 18.6684 80.9795 19.3512 80.0048C19.6731 79.5472 19.2171 78.5547 19.6642 78.0491C20.2348 77.3858 21.4867 77.6646 21.8525 77.0631C22.1784 76.5347 21.8086 75.4633 22.1679 75.1024C22.6247 74.6399 23.4522 75.1528 24.0431 74.7699C25.1413 74.0798 23.9863 73.6222 25.295 72.1574C25.9298 71.4485 26.9142 71.6379 27.1751 71.1762C27.8376 69.9724 26.9386 68.923 27.8011 68.2312C28.4701 67.6914 29.9414 68.2361 30.3063 67.9069C31.3306 66.955 30.9802 64.4334 32.497 64.3034C33.8098 63.7978 32.545 65.999 33.4318 65.9365C33.6676 63.9051 36.1452 64.4725 37.5019 62.9947C39.3536 60.9747 37.7449 57.0826 41.5687 57.433C40.829 54.2254 44.0415 55.1886 45.6388 54.1636C46.085 53.875 46.042 52.6988 46.5752 52.1981C47.3588 51.4681 49.4048 51.5299 50.3355 50.8845C51.0419 50.3951 51.1183 49.2351 51.8979 48.6019C54.4186 46.5518 58.4675 47.3704 59.0975 44.6733C60.2973 44.5083 59.3056 46.6413 60.3493 46.6413C60.6956 45.2521 61.2207 44.062 61.6036 42.7037C62.7945 42.6574 63.109 43.5336 64.1072 43.6897C65.3062 42.1176 66.4817 40.5024 68.7975 40.0903C68.0773 40.6536 69.2812 45.387 70.6769 43.0378C71.0362 42.4428 70.4972 41.3218 70.6769 40.4203C70.8809 39.4108 72.4758 36.8006 72.8635 36.4942C73.3033 36.1487 74.1348 36.8209 74.1218 36.8282C75.5679 36.5876 74.7128 35.5472 75.6842 35.5146C77.0742 35.4626 76.3825 37.0388 78.8097 36.4942C79.9892 36.2332 79.1137 35.8146 80.381 34.8603C80.8752 34.4782 81.3898 35.3569 81.6328 35.1854C81.9124 34.9798 83.2171 32.7395 83.8211 32.568C83.9235 32.5387 85.5874 33.5816 85.3883 33.5516C88.4561 33.9938 88.8723 30.1838 91.645 29.2986C93.1041 35.1424 95.1923 28.8637 96.9669 27.0087C97.9651 28.1752 96.7872 29.8571 96.3393 30.6073C97.1774 29.7107 99.7266 26.4804 100.721 28.9718C100.823 29.2279 100.162 30.1269 100.408 30.2781C102.578 31.6137 105.555 29.8229 104.474 27.0087C103.141 27.1323 103.905 29.4612 101.977 28.9718C101.567 26.6381 105.257 25.8967 106.979 24.7116C106.763 26.1252 105.673 29.4311 107.61 29.9505C110.08 30.6073 108.454 28.8133 108.233 27.9858C107.754 26.1479 109.844 24.2425 109.483 22.099C112.912 21.8698 109.792 26.1804 111.367 26.6812C113.418 27.329 113.488 23.1078 112.925 20.4651C113.969 19.8384 114.755 22.2981 115.431 22.4258C115.748 22.4835 116.359 21.2065 116.687 21.1171C117.808 20.813 122.463 22.5428 122.629 19.4815C123.695 19.2369 123.145 20.6846 123.885 20.7829C124.662 20.8911 124.457 19.0792 124.82 18.8247C127.017 17.2876 130.039 20.4489 132.333 20.131C133.35 19.9936 134.483 17.9875 136.396 19.1523C136.729 19.349 137.07 21.0577 137.967 21.769C138.714 22.3664 139.994 22.2868 140.473 22.7509C141.456 23.7231 141.434 26.265 142.977 25.6951L142.815 27.2534L143.911 28.3126C141.626 30.7699 144.106 30.5228 145.163 32.8956C146.585 36.0666 152.536 31.66 148.605 30.6073L149.439 29.6262L149.54 28.3126C150.372 26.304 153.766 27.3819 152.363 24.3913C151.446 22.442 148.822 22.7168 147.98 21.769C147.293 21.0049 147.98 18.6394 147.043 18.1728C146.614 17.9485 143.817 17.5095 143.285 17.516C142.644 17.5323 140.834 18.3744 140.473 18.1728C139.449 17.6054 139.313 13.9491 138.589 13.2606C138.167 12.8607 137.468 13.8077 136.713 13.5898C135.521 13.2541 135.192 10.7415 135.77 10.3188C134.451 10.3188 134.77 12.2583 133.274 12.2795C132.317 12.2933 132.481 10.7253 131.712 10.3188C130.928 9.91319 129.383 10.6643 128.264 10.3188C126.253 9.70753 126.759 7.93223 125.759 7.6965C124.546 8.98897 127.135 9.08325 126.389 10.9707C125.08 11.3065 125.052 9.30762 123.885 9.33038C123.084 9.35558 123.222 10.4464 122.629 10.3188C121.647 10.0985 121.535 8.97108 120.443 9.0101C119.883 9.02798 119.703 10.0351 118.875 10.3188C117.55 10.7643 115.773 9.32307 113.866 9.33038C111.527 9.35558 107.867 11.9405 108.233 6.72186L109.776 6.87956L110.426 5.41315H110.739C109.402 1.42519 120.377 0.952083 121.69 4.10441C122.358 5.69926 120.027 5.41801 121.379 7.36972C122.301 6.01059 122.27 2.77535 123.566 2.13481C125.004 1.43249 133.366 2.43884 135.461 3.44355C136.121 3.76626 136.595 5.03109 137.029 5.08636C137.737 5.16359 137.502 4.36046 138.276 4.10441C140.042 3.51914 145.382 5.25788 147.043 6.061C147.774 6.41785 148.284 7.28925 149.227 7.6965C149.61 7.86802 150.577 7.3307 150.794 7.36972C151.7 7.55261 156.904 10.1652 157.368 10.6432C157.911 11.2219 158.449 12.3185 158.305 12.9355C161.22 11.0504 165.776 17.9208 166.448 15.5554C166.759 14.4482 164.048 13.272 163.316 12.6087C163.014 12.3315 163.279 11.5836 163.003 11.3C162.327 10.6253 160.701 10.9342 161.126 9.33038C163.444 9.94085 164.986 11.378 168.01 11.9519L168.661 13.4281L170.204 13.2606C170.291 16.0065 171.814 17.2486 173.955 17.8477C174.184 15.0636 171.714 13.8508 172.392 11.6267L173.804 11.7966L173.955 10.3188H174.268C174.922 10.131 173.819 9.08487 173.955 8.35329C176.233 9.50594 178.577 8.66218 179.594 10.9707C179.99 11.8787 179.979 16.9234 181.155 17.516C182.264 18.0793 183.718 16.2073 183.658 16.2073C184.899 16.1731 188.23 19.5157 188.353 20.4651C188.521 21.7738 187.652 23.3573 186.477 23.7304C186.102 23.8516 185.208 23.4947 184.91 23.7304C184.1 24.3913 184.79 24.927 184.284 25.6951C183.683 26.608 181.75 26.999 180.842 27.9858C179.789 29.136 179.909 31.2552 178.023 30.9301C180.708 26.4251 174.644 26.5852 173.02 28.9718C171.963 28.9027 172.372 28.0476 171.145 27.9858C170.214 27.9444 170.858 28.88 170.514 28.9718C169.906 29.1206 168.838 28.4801 168.01 28.9718C167.832 29.0702 165.855 32.9915 165.818 32.8956C166.686 35.2196 169.372 32.7582 171.145 33.8767C172.44 34.6961 170.825 35.8577 172.705 36.169C173.644 35.5813 171.035 33.037 173.331 32.8956C172.648 36.2267 176.596 34.7115 176.147 37.8029C173.508 36.6063 174.136 40.3699 172.079 41.4015C170.342 42.2753 166.623 40.0952 167.697 43.6897C169.483 43.845 169.809 41.7445 171.455 42.7037C169.757 45.4098 170.143 47.407 172.392 49.2538C174.799 51.2283 175.959 50.3309 174.895 55.4674C174.73 56.2706 174.248 55.678 173.955 56.4535C173.725 57.0599 174.268 58.1012 174.268 58.0898C174.206 58.2792 173.324 58.4694 173.331 58.4141C173.239 59.4326 174.268 60.5235 174.268 61.3592C174.272 61.8396 173.436 61.8826 173.331 62.3403C172.974 63.9165 173.961 65.1569 174.895 66.2665C173.179 68.3986 169.356 68.3255 166.448 69.2156C166.551 69.9748 166.765 70.6251 167.384 70.8535C165.336 72.8694 162.667 72.954 160.5 74.1229C159.613 74.5968 158.911 75.6332 157.994 76.0884C154.217 77.9255 149.765 75.8665 145.163 76.7355C144.695 76.8249 144.109 77.7036 143.598 77.7215C142.167 77.7768 139.3 77.1021 138.589 76.4128C138.055 75.8868 138.53 74.5115 137.654 74.1229C136.545 73.6173 132.759 75.9169 132.02 74.1229C131.057 71.8054 130.278 68.241 128.888 66.5933C127.564 65.0236 126.816 66.008 126.069 63.6539C125.772 62.6996 124.397 60.869 123.257 60.3772C122.011 59.844 116.753 59.7228 114.803 59.7228C110.459 59.7163 104.76 60.2723 101.348 61.3592C96.8774 62.7914 91.0695 63.3905 86.6377 64.9626C85.5387 65.3463 84.3372 65.8365 83.1976 66.2665C81.6109 66.8769 80.2403 68.2409 79.1292 68.5612C78.5756 68.7165 78.0562 67.9979 77.5644 68.2312C77.2026 68.4035 76.8726 69.6269 76.3142 69.8626C75.9996 69.9976 75.3273 69.6659 75.0583 69.8626C74.6405 70.174 74.7957 70.8332 74.4348 71.1762C72.5636 72.915 69.3576 73.1873 67.2344 74.7699C62.0523 78.6506 57.2946 81.9753 53.1538 86.8826C52.1206 88.0946 52.0158 88.8457 50.6485 89.8227C48.5521 91.3298 45.1421 95.2243 43.761 97.6792C43.166 98.7383 43.214 100.354 42.5092 101.6C42.2076 102.145 41.3582 102.012 40.9444 102.584C40.2397 103.572 40.3665 105.135 39.695 107.165C37.0532 115.099 32.0418 124.143 33.1205 135.955C33.34 138.403 32.7572 142.134 33.1205 145.12C33.2652 146.344 34.2829 147.516 34.3723 148.719C34.6772 152.72 35.2876 158.346 36.246 162.79C36.5549 164.206 37.6466 165.441 38.1278 167.041C38.5765 168.537 38.496 170.415 39.0626 171.951C42.1223 180.148 47.8969 188.831 53.1538 196.16C53.7602 197.011 54.756 197.595 55.0275 198.454C55.7412 200.678 54.9681 199.696 56.9052 200.74C58.0099 201.344 59.0691 203.383 60.6607 205C61.932 206.286 63.4943 206.926 64.1072 207.945C64.4665 208.546 64.3105 209.392 64.7307 209.91C65.3396 210.658 67.0881 210.729 66.9214 212.198C69.7079 209.793 70.3704 214.366 71.9287 215.469C72.1327 215.613 73.2878 215.312 73.8089 215.469C73.7406 215.456 79.3738 217.84 80.068 219.066C80.4663 219.778 80.068 220.93 81.0044 221.359C82.5952 222.09 86.1865 220.569 87.579 222.011C88.0204 222.472 87.7318 223.761 88.2049 223.978C88.9292 224.305 91.4588 223.703 92.9009 223.978C96.5181 224.666 107.566 227.08 108.544 230.517C109.21 232.848 107.292 235.305 109.483 236.735C110.553 236.98 109.883 235.406 111.05 235.756C112.105 237.838 115.895 239.387 114.803 234.443C111.783 237.632 110.671 232.376 110.113 229.213C112.595 227.92 118.173 230.132 121.064 230.192C122.78 230.226 126.214 228.103 125.446 231.83H126.702C127.028 228.471 131.676 229.924 131.712 232.482C132.206 229.224 140.559 227.112 141.406 231.173C142.372 228.952 142.187 229.952 144.855 228.883C145.428 228.65 145.504 227.963 145.786 227.904C146.946 227.657 148.321 228.293 149.227 227.904C150.173 227.502 150.363 227.659 152.05 227.579C153.396 227.504 154.292 225.888 156.114 225.282C157.648 224.783 159.504 225.275 160.5 224.957C161.452 224.655 162.119 223.475 163.316 222.992C165.187 222.246 168.087 222.113 170.825 221.036C174.871 219.435 178.793 216.003 181.155 215.796C183.634 215.579 183.135 216.163 184.599 213.836C185.694 212.093 188.296 212.198 190.545 210.562C193.114 208.697 193.874 206.535 194.926 205.975C195.756 205.544 196.625 206.13 197.115 205.65C197.671 205.117 197.321 204.064 197.745 203.362C198.4 202.268 200.019 202.215 200.872 201.397C201.44 200.855 201.15 199.828 201.497 199.44C202.44 198.359 205.781 197.881 206.816 196.815C207.552 196.069 207.729 195.017 208.07 193.871C213.036 194.93 212.866 185.961 216.524 183.728C217.111 183.374 218.135 184.115 218.708 183.728C219.645 183.111 219.4 180.995 219.963 179.805C220.151 179.405 221.541 178.741 221.84 177.837C222.379 176.224 222.875 173.95 224.031 173.259C225.504 172.376 224.742 173.673 225.591 171.951C225.95 171.239 227.342 171.193 227.475 170.965C228.474 169.301 228.519 165.686 229.668 163.776C230.191 162.895 231.467 162.564 231.541 160.829C232.423 160.557 232.352 161.291 233.109 161.159C234.059 154.187 238.44 148.207 239.685 140.867C240.132 138.198 239.744 135.42 239.996 132.69C240.368 128.559 240.083 123.642 240.619 120.583C241.009 118.35 240.268 114.832 239.685 112.079C238.525 106.652 238.825 102.14 236.866 97.3516C236.019 95.2974 234.5 92.4873 233.109 90.1544C231.202 86.9606 229.154 83.1604 227.475 80.9933C226.115 79.2359 223.6 77.5638 222.153 75.7543C221.38 74.7911 220.987 73.4116 220.273 72.485C218.864 70.6479 217.118 69.4351 215.581 67.9069C213.287 65.6121 211.502 62.3102 209.009 60.3772C207.499 59.2107 205.07 57.3615 205.251 54.4879C204.573 53.7677 204.059 55.4674 204.002 55.4674C202.652 55.4447 201.242 49.3701 204.312 48.6019C207.271 47.8533 203.858 49.1189 205.569 49.5806C206.212 49.7546 207.488 49.075 207.132 51.8689C209.37 51.0178 208.061 47.9589 209.951 45.6593C211.182 45.6707 211.81 46.3275 211.822 47.6159C214.019 46.4185 213.843 49.4595 216.214 48.2768C215.49 51.095 218.247 50.6398 219.334 51.5413C220.455 52.4753 220.781 54.9318 222.786 54.4879V53.836L223.641 53.9961L224.031 53.1776C225.331 54.4879 225.432 52.0631 226.536 52.1981C226.504 52.1932 230.29 55.1382 230.603 55.4674C231.338 56.2405 231.452 57.8516 232.17 58.0898C233.049 57.5216 232.463 57.2314 232.483 56.1194C233.64 56.8079 235.938 55.6113 237.181 57.433C237.983 58.6206 237.114 61.0641 238.113 62.3403C238.422 62.7386 239.374 61.933 239.996 62.3403C240.204 62.4801 240.906 64.466 241.869 65.2894C243.528 66.694 244.038 65.7243 244.692 66.9233C244.931 67.3785 244.322 68.8994 244.692 69.8626C245.125 71.025 246.423 71.2949 246.568 71.8282C246.831 72.8093 244.891 74.674 246.568 76.0884C248.603 77.793 251.141 74.9967 252.82 77.7215C253.343 76.9005 252.464 75.0658 253.139 73.7961C254.86 73.4116 253.376 76.3835 254.704 76.4128C255.393 76.3721 254.833 75.0195 255.017 74.4456C255.687 76.8501 260.611 79.4196 256.575 80.9933C257.536 82.2882 260.107 81.8899 259.716 84.5968C258.313 84.5187 258.302 83.0068 256.575 83.2832C255.984 85.1048 257.769 84.4415 257.832 85.5738L256.992 85.8275L257.521 86.5526C256.009 88.6026 254.785 86.6859 253.764 85.5738C254.446 87.9946 255.72 90.8974 258.771 89.8227L259.668 90.2617L260.337 89.4976C261.935 91.1697 261.053 92.5955 262.218 94.0798C263.651 95.9242 265.997 95.5397 266.286 98.6603C264.371 98.1409 263.299 99.7561 263.467 101.93C263.546 102.902 264.529 102.859 265.034 104.222C266.426 107.988 263.833 109.97 266.286 111.091C266.04 111.93 265.386 112.338 264.093 112.079C264.624 115.339 267.608 116.012 267.844 118.94C267.93 119.961 265.828 123.207 268.474 124.834C269.227 124.534 268.282 122.455 269.724 122.868C270.254 127.289 272.21 129.137 270.667 132.69C269.155 132.089 267.93 131.176 267.222 129.746C264.668 132.951 269.052 134.825 269.098 137.925C269.125 139.625 268.588 141.089 269.098 143.489C263.82 143.407 267.632 149.315 268.161 151.669C267.343 151.753 266.814 151.547 266.909 150.689C266.266 153.078 266.853 156.113 265.968 159.516C265.001 159.55 265.034 158.529 265.034 157.555C263.981 157.329 264.006 158.23 263.467 158.537C261.841 157.042 263.362 155.83 263.154 153.302C262.467 153.05 260.532 153.975 260.337 154.61C260.528 153.981 261.106 157.221 261.588 157.88C262.117 158.598 263.813 158.882 264.093 159.516C264.994 161.55 262.8 164.357 263.154 166.718C263.467 168.795 265.246 168.299 265.034 169.99C263.789 170.376 263.708 169.763 262.841 169.99C260.458 170.614 261.801 173.055 260.337 174.897C259.994 175.332 258.974 174.602 258.771 175.226C258.317 176.595 259.105 178.585 258.771 180.132C258.756 180.209 257.852 180.059 257.832 180.132C257.407 181.848 257.683 183.996 256.575 184.053C255.215 184.131 256.379 182.342 255.017 182.749L253.923 182.582L253.139 183.402C253.249 178.99 247.592 179.782 248.439 184.71C249.629 185.188 249.045 183.813 250.01 184.053C249.936 185.986 251.709 185.991 251.258 188.309L249.848 188.473L250.01 189.949C247.097 190.574 246.905 192.825 245.935 187.984C243.933 188.893 244.307 192.578 245.314 194.2C244.375 193.742 243.04 193.722 242.808 194.85L241.714 194.694L241.869 195.836C241.913 196.651 241.714 197.195 241.245 197.469C240.215 197.353 240.05 196.321 239.685 195.508C238.499 196.456 239.374 199.556 237.181 199.44L236.291 198.943L235.295 199.105Z" fill="#191717"/>
<path fill-rule="evenodd" clip-rule="evenodd" d="M109.61 5.71527L111.017 6.38752C110.319 8.43108 112.503 7.45645 112.582 8.68226C112.389 9.35044 111.118 8.5709 110.393 9.33012C109.772 9.99099 110.767 11.5834 109.457 11.9516C106.205 12.8808 100.455 11.9752 100.063 11.2997C99.3457 10.0576 101.539 9.27972 100.063 8.35305L100.552 7.2638L99.7529 6.38752C103.342 6.32818 105.598 4.36102 109.765 4.10497L109.61 5.71527Z" fill="#191717"/>
<path fill-rule="evenodd" clip-rule="evenodd" d="M93.807 10.1583L95.0539 9.99162C95.1336 14.0771 97.5055 9.7697 99.1248 10.9703C98.4753 15.0591 94.3036 15.711 90.9904 15.8825C89.7979 15.9394 87.165 14.334 87.5478 17.1864C87.3381 17.1433 86.1692 17.2303 85.9831 16.862C85.2872 15.5208 86.8561 15.4891 87.5478 13.917C88.2656 12.2677 87.3747 12.4367 88.7997 10.9703C89.5784 10.1656 92.1414 9.17224 93.1811 9.00967L93.807 10.1583Z" fill="#191717"/>
<path fill-rule="evenodd" clip-rule="evenodd" d="M81.2867 13.9173C77.7523 16.1388 84.9389 19.8472 79.4114 20.7836C79.2691 17.0582 76.446 14.7521 81.2867 13.9173Z" fill="#191717"/>
<path fill-rule="evenodd" clip-rule="evenodd" d="M69.0817 19.152C70.4628 17.3856 71.7951 19.6527 72.5242 18.1725C73.6793 18.4058 71.548 20.0421 73.1453 19.8088L72.9924 21.0948L73.7736 22.0987C72.8242 25.4347 68.95 24.6657 69.7101 21.4467L69.9173 20.138L69.0817 19.152Z" fill="#191717"/>
<path fill-rule="evenodd" clip-rule="evenodd" d="M21.1937 61.3587C22.3139 60.0337 23.8242 56.4856 25.2662 56.4539C25.7962 56.4352 27.7154 58.0073 27.7699 58.4145C27.9495 59.7436 24.0908 63.2235 22.7609 63.3194L22.6837 61.7318L21.1937 61.3587Z" fill="#191717"/>
<path fill-rule="evenodd" clip-rule="evenodd" d="M58.6843 29.9668C59.6273 28.2898 62.3585 28.8873 62.9804 26.8372L58.6843 29.9668Z" fill="#191717"/>
<path fill-rule="evenodd" clip-rule="evenodd" d="M35.2284 46.579C34.1343 47.8032 33.9701 50.2491 31.8671 50.267L35.2284 46.579Z" fill="#191717"/>
<path fill-rule="evenodd" clip-rule="evenodd" d="M274.387 109.462C276.538 112.163 276.379 115.339 276.269 118.62L274.387 109.462Z" fill="#191717"/>
<path fill-rule="evenodd" clip-rule="evenodd" d="M34.4995 216.449C33.1973 215.024 32.9063 211.926 33.6639 209.855L34.4995 216.449Z" fill="#191717"/>
<path fill-rule="evenodd" clip-rule="evenodd" d="M20.7209 195.346C22.1589 196.877 23.3099 194.181 24.7959 194.037L20.7209 195.346Z" fill="#191717"/>
<path fill-rule="evenodd" clip-rule="evenodd" d="M93.807 10.1583C95.2181 7.80174 98.3217 8.23907 100.551 7.26443L93.807 10.1583Z" fill="#191717"/>
<path fill-rule="evenodd" clip-rule="evenodd" d="M109.61 5.71527C111.446 4.76096 114.58 4.28786 115.379 6.88011L109.61 5.71527Z" fill="#191717"/>
<path fill-rule="evenodd" clip-rule="evenodd" d="M174.263 13.4277C175.066 10.577 177.605 8.19284 179.406 11.7963L174.263 13.4277Z" fill="#191717"/>
<path fill-rule="evenodd" clip-rule="evenodd" d="M229.789 50.8345C226.983 49.755 228.091 52.8041 229.243 53.9965L229.789 50.8345Z" fill="#191717"/>
<path fill-rule="evenodd" clip-rule="evenodd" d="M249.424 200.783C251.127 198.778 248.617 196.22 247.316 194.694L249.424 200.783Z" fill="#191717"/>
<path fill-rule="evenodd" clip-rule="evenodd" d="M244.605 201.673C243.033 204.142 240.957 200.74 241.893 198.943L244.605 201.673Z" fill="#191717"/>
<path fill-rule="evenodd" clip-rule="evenodd" d="M155.042 29.6259C152.654 29.3991 151.03 25.9175 148.418 27.2531L155.042 29.6259Z" fill="#191717"/>
<path fill-rule="evenodd" clip-rule="evenodd" d="M265.27 90.2617C264.748 88.5181 264.992 86.0087 262.594 85.8275L265.27 90.2617Z" fill="#191717"/>
<path fill-rule="evenodd" clip-rule="evenodd" d="M255.451 188.473C259.057 192.157 260.217 185.277 259.526 182.582L255.451 188.473Z" fill="#191717"/>
<path fill-rule="evenodd" clip-rule="evenodd" d="M138.051 242.462C138.348 240.004 137.484 238.296 136.385 236.246L138.051 242.462Z" fill="#191717"/>
<path fill-rule="evenodd" clip-rule="evenodd" d="M72.9924 21.0948C75.5221 21.4971 76.7918 19.6321 76.439 17.1869L72.9924 21.0948Z" fill="#191717"/>
<path fill-rule="evenodd" clip-rule="evenodd" d="M65.2957 22.0644C67.1385 22.1213 68.0485 20.3006 69.9173 20.138L65.2957 22.0644Z" fill="#191717"/>
<path fill-rule="evenodd" clip-rule="evenodd" d="M18.1211 70.2678C19.7298 67.7122 19.9947 63.7884 22.6837 61.7318L18.1211 70.2678Z" fill="#191717"/>
</svg>
